<svg xmlns="http://www.w3.org/2000/svg" style="display:none">
    <symbol id="icon-heart" viewBox="0 0 24 24" fill="currentColor">
        <path stroke-linecap="round" stroke-linejoin="round" d="M21 8.25c0-2.485-2.099-4.5-4.688-4.5-1.935 0-3.597 1.126-4.312 2.733-.715-1.607-2.377-2.733-4.313-2.733C5.1 3.75 3 5.765 3 8.25c0 7.22 9 12 9 12s9-4.78 9-12Z" />
    </symbol>
    <symbol id="icon-solid" viewBox="0 0 24 24" fill="currentColor">
        <path d="m11.645 20.91-.007-.003-.022-.012a15.247 15.247 0 0 1-.383-.218 25.18 25.18 0 0 1-4.244-3.17C4.688 15.36 2.25 12.174 2.25 8.25 2.25 5.322 4.714 3 7.688 3A5.5 5.5 0 0 1 12 5.052 5.5 5.5 0 0 1 16.313 3c2.973 0 5.437 2.322 5.437 5.25 0 3.925-2.438 7.111-4.739 9.256a25.175 25.175 0 0 1-4.244 3.17 15.247 15.247 0 0 1-.383.219l-.022.012-.007.004-.003.001a.752.752 0 0 1-.704 0l-.003-.001Z" />
    </symbol>
    <symbol id="icon-star" viewBox="0 0 24 24" fill="currentColor">
        <path stroke-linecap="round" stroke-linejoin="round" d="M11.48 3.499a.562.562 0 0 1 1.04 0l2.125 5.111a.563.563 0 0 0 .475.345l5.518.442c.499.04.701.663.321.988l-4.204 3.602a.563.563 0 0 0-.182.557l1.285 5.385a.562.562 0 0 1-.84.61l-4.725-2.885a.562.562 0 0 0-.586 0L6.982 20.54a.562.562 0 0 1-.84-.61l1.285-5.386a.562.562 0 0 0-.182-.557l-4.204-3.602a.562.562 0 0 1 .321-.988l5.518-.442a.563.563 0 0 0 .475-.345L11.48 3.5Z" />
    </symbol>
    <symbol id="icon-star" viewBox="0 0 24 24" fill="currentColor">
        <path fill-rule="evenodd" d="M10.788 3.21c.448-1.077 1.976-1.077 2.424 0l2.082 5.006 5.404.434c1.164.093 1.636 1.545.749 2.305l-4.117 3.527 1.257 5.273c.271 1.136-.964 2.033-1.96 1.425L12 18.354 7.373 21.18c-.996.608-2.231-.29-1.96-1.425l1.257-5.273-4.117-3.527c-.887-.76-.415-2.212.749-2.305l5.404-.434 2.082-5.005Z" clip-rule="evenodd" />
    </symbol>
    <symbol id="icon-archive-box-solid" viewBox="0 0 24 24" fill="currentColor">
        <path d="M3.375 3C2.339 3 1.5 3.84 1.5 4.875v.75c0 1.036.84 1.875 1.875 1.875h17.25c1.035 0 1.875-.84 1.875-1.875v-.75C22.5 3.839 21.66 3 20.625 3H3.375Z" />
        <path fill-rule="evenodd" d="m3.087 9 .54 9.176A3 3 0 0 0 6.62 21h10.757a3 3 0 0 0 2.995-2.824L20.913 9H3.087Zm6.163 3.75A.75.75 0 0 1 10 12h4a.75.75 0 0 1 0 1.5h-4a.75.75 0 0 1-.75-.75Z" clip-rule="evenodd" />
    </symbol>
</svg>